# xmcd CD database file generated by OrangeCD 5.2
#
# Track frame offsets:
#	150
#	16976
#	34233
#	58038
#	74022
#	90653
#	105417
#	123550
#	141995
#	158419
#
# Disc length: 2363 seconds
#
# Revision: 0
# Processed by: cddbd v1.5.1PL0 Copyright (c) Steve Scherf et al.
# Submitted via: OrangeCD 5.2
#
DISCID=8509390a
DTITLE=Daniel Smith and George Pearson - Sitting On Top Of The World
DYEAR=1900
DGENRE=Blues
TTITLE0=Rambling on my Mind
TTITLE1=Honeydripper
TTITLE2=Jimmy's Blues
TTITLE3=Thinking Blues
TTITLE4=The Twins
TTITLE5=Honky Tonk Train Blues
TTITLE6=Sitting  on top of the World
TTITLE7=Pinetops Boogie Woogie
TTITLE8=Don't Say a Word
TTITLE9=J B Boogie
EXTD=
EXTT0=
EXTT1=
EXTT2=
EXTT3=
EXTT4=
EXTT5=
EXTT6=
EXTT7=
EXTT8=
EXTT9=
PLAYORDER=
